<?xml version="1.0" encoding="UTF-8" standalone="no"?>
<!-- Created with Inkscape (http://www.inkscape.org/) -->

<svg
   xmlns:dc="http://purl.org/dc/elements/1.1/"
   xmlns:cc="http://creativecommons.org/ns#"
   xmlns:rdf="http://www.w3.org/1999/02/22-rdf-syntax-ns#"
   xmlns:svg="http://www.w3.org/2000/svg"
   xmlns="http://www.w3.org/2000/svg"
   xmlns:sodipodi="http://sodipodi.sourceforge.net/DTD/sodipodi-0.dtd"
   xmlns:inkscape="http://www.inkscape.org/namespaces/inkscape"
   version="1.1"
   id="svg2"
   xml:space="preserve"
   width="149.90894"
   height="170.31613"
   viewBox="0 0 149.90894 170.31613"
   sodipodi:docname="сосна торгово строительное объединение.svg"
   inkscape:version="0.92.4 (5da689c313, 2019-01-14)"><metadata
     id="metadata8"><rdf:RDF><cc:Work
         rdf:about=""><dc:format>image/svg+xml</dc:format><dc:type
           rdf:resource="http://purl.org/dc/dcmitype/StillImage" /><dc:title></dc:title></cc:Work></rdf:RDF></metadata><defs
     id="defs6"><clipPath
       clipPathUnits="userSpaceOnUse"
       id="clipPath20"><path
         d="M 85.2435,63.618 56.2164,107.8923 27.1894,63.618 H 35.617 L 56.2164,95.0374 76.8158,63.618 Z"
         id="path18"
         inkscape:connector-curvature="0"
         style="clip-rule:evenodd" /></clipPath><linearGradient
       x1="56.220001"
       y1="107.89"
       x2="56.220001"
       y2="63.619999"
       gradientUnits="userSpaceOnUse"
       spreadMethod="pad"
       id="linearGradient26"><stop
         style="stop-opacity:1;stop-color:#00873b"
         offset="0"
         id="stop22" /><stop
         style="stop-opacity:1;stop-color:#281f6e"
         offset="1"
         id="stop24" /></linearGradient><clipPath
       clipPathUnits="userSpaceOnUse"
       id="clipPath36"><path
         d="M 85.2435,46.6274 56.2164,90.9014 27.1894,46.6274 Z"
         id="path34"
         inkscape:connector-curvature="0"
         style="clip-rule:evenodd" /></clipPath><linearGradient
       x1="56.220001"
       y1="77.93"
       x2="56.220001"
       y2="15.32"
       gradientUnits="userSpaceOnUse"
       spreadMethod="pad"
       id="linearGradient44"><stop
         style="stop-opacity:1;stop-color:#00873b"
         offset="0"
         id="stop38" /><stop
         style="stop-opacity:1;stop-color:#213165"
         offset="0.39"
         id="stop40" /><stop
         style="stop-opacity:1;stop-color:#281f6e"
         offset="1"
         id="stop42" /></linearGradient></defs><sodipodi:namedview
     pagecolor="#ffffff"
     bordercolor="#666666"
     borderopacity="1"
     objecttolerance="10"
     gridtolerance="10"
     guidetolerance="10"
     inkscape:pageopacity="0"
     inkscape:pageshadow="2"
     inkscape:window-width="1280"
     inkscape:window-height="972"
     id="namedview4"
     showgrid="false"
     fit-margin-top="0"
     fit-margin-left="0"
     fit-margin-right="0"
     fit-margin-bottom="0"
     inkscape:zoom="2.7285949"
     inkscape:cx="64.326131"
     inkscape:cy="88.750038"
     inkscape:window-x="-8"
     inkscape:window-y="-8"
     inkscape:window-maximized="1"
     inkscape:current-layer="g10" /><g
     id="g10"
     inkscape:groupmode="layer"
     inkscape:label="сосна торгово строительное объединение"
     transform="matrix(1.3333333,0,0,-1.3333333,0,170.31613)"><path
       d="M 59.8419,106.4985 C 72.0825,105.2563 82.4845,97.7939 87.8357,87.321 H 72.415 Z M 40.0178,87.321 H 24.5971 c 5.3512,10.4729 15.7532,17.9353 27.9938,19.1775 z m 48.877,-2.2677 c 0.5159,-1.2147 0.9657,-2.4642 1.3456,-3.7438 H 76.3563 l -2.4545,3.7438 z M 36.0765,81.3095 H 22.1924 c 0.3799,1.2796 0.8297,2.5291 1.3456,3.7438 h 14.9931 z m 54.7558,-2.2677 c 0.2766,-1.2251 0.4898,-2.4741 0.6358,-3.7437 H 80.2973 l -2.4542,3.7437 z M 32.1355,75.2981 H 20.9648 c 0.1459,1.2696 0.3591,2.5186 0.6358,3.7437 h 12.9892 z m 59.5208,-2.2677 c 0.0309,-0.6075 0.0465,-1.2189 0.0465,-1.834 0,-0.6407 -0.0182,-1.2773 -0.0516,-1.9097 h -7.4126 l -2.4545,3.7437 z M 28.1942,69.2867 h -7.4126 c -0.0334,0.6324 -0.0516,1.269 -0.0516,1.9097 0,0.6151 0.0156,1.2265 0.0465,1.834 h 9.8723 z M 91.4567,67.019 c -0.1488,-1.27 -0.3671,-2.5183 -0.6466,-3.7438 H 88.1799 L 85.7254,67.019 Z M 24.2529,63.2752 h -2.6302 c -0.2795,1.2255 -0.4978,2.4738 -0.6466,3.7438 h 5.7314 z m 65.9603,-2.2677 c -0.383,-1.2801 -0.8377,-2.5288 -1.357,-3.7437 h -7.8746 l -2.4543,3.7437 z m -58.762,-3.7437 h -7.8746 c -0.5193,1.2149 -0.974,2.4636 -1.3569,3.7437 h 11.6858 z m 56.3403,-2.2677 c -0.7551,-1.4695 -1.6106,-2.8789 -2.556,-4.2205 l -2.7672,4.2205 z M 79.4296,44.3597 C 73.2081,38.971 65.094,35.71 56.2164,35.71 c -8.8775,0 -16.9917,3.2613 -23.2132,8.6497 z m -52.2323,6.4159 c -0.9454,1.3413 -1.8009,2.751 -2.556,4.2205 h 5.3232 z"
       style="fill:#25156d;fill-opacity:1;fill-rule:evenodd;stroke:none"
       id="path12"
       inkscape:connector-curvature="0" /><g
       id="g14"><g
         id="g16"
         clip-path="url(#clipPath20)"><path
           d="M 85.2435,63.618 56.2164,107.8923 27.1894,63.618 H 35.617 L 56.2164,95.0374 76.8158,63.618 Z"
           style="fill:url(#linearGradient26);fill-rule:evenodd;stroke:none"
           id="path28"
           inkscape:connector-curvature="0" /></g></g><g
       id="g30"><g
         id="g32"
         clip-path="url(#clipPath36)"><path
           d="M 85.2435,46.6274 56.2164,90.9014 27.1894,46.6274 Z"
           style="fill:url(#linearGradient44);fill-rule:evenodd;stroke:none"
           id="path46"
           inkscape:connector-curvature="0" /></g></g><path
       d="m 99.4346,86.8329 c 0.9059,-2.4892 1.6029,-5.0724 2.0687,-7.7264 0.4566,-2.602 0.695,-5.2762 0.695,-8.0022 0,-12.6973 -5.1471,-24.1932 -13.4679,-32.514 C 80.6423,30.5019 69.5546,25.4134 57.2794,25.1351 v -2.363 h -2.126 v 4.4762 h 1.063 c 12.1107,0 23.0752,4.9088 31.011,12.8449 7.9359,7.9359 12.8449,18.9003 12.8449,31.0111 0,2.6078 -0.2267,5.1599 -0.6616,7.6365 -0.4467,2.5449 -1.11,5.0085 -1.9695,7.3698 z M 16.4078,48.081 c -1.9945,3.4415 -3.5561,7.1637 -4.608,11.0905 -1.0208,3.8089 -1.5653,7.8095 -1.5653,11.9328 0,12.6972 5.1469,24.1931 13.468,32.5139 8.0881,8.0884 19.1758,13.1769 31.4509,13.4552 v 2.363 h 2.126 v -4.4762 h -1.063 c -12.1107,0 -23.0751,-4.9088 -31.011,-12.8449 -7.9362,-7.9359 -12.8449,-18.9003 -12.8449,-31.011 0,-3.9413 0.5184,-7.7576 1.4904,-11.3846 1.0043,-3.7491 2.4928,-7.2986 4.392,-10.5757 z"
       style="fill:#006211;fill-opacity:1;fill-rule:nonzero;stroke:none"
       id="path48"
       inkscape:connector-curvature="0" />
       </g></svg>